<svg xmlns="http://www.w3.org/2000/svg" viewBox="0 0 660 200" font-family="Arial, sans-serif">
  <defs>
    <marker id="arr" viewBox="0 0 10 7" refX="10" refY="3.5" markerWidth="8" markerHeight="6" orient="auto-start-auto"><path d="M 0 0 L 10 3.5 L 0 7 z" fill="#6EE7B7"/></marker>
  </defs>

  <rect x="0" y="0" width="660" height="200" rx="12" fill="#ECFDF5" stroke="#A7F3D0" stroke-width="1"/>

  <!-- Pipeline track -->
  <text x="100" y="28" text-anchor="middle" font-size="9" font-weight="600" fill="#065F46">DESIGN</text>
  <rect x="20" y="38" width="140" height="56" rx="6" fill="#D1FAE5" stroke="#059669" stroke-width="1.5"/>
  <text x="90" y="62" text-anchor="middle" font-size="12" font-weight="600" fill="#064E3B">user-flow</text>
  <text x="90" y="78" text-anchor="middle" font-size="8" fill="#047857">screens, transitions, edges</text>

  <path d="M 160 66 L 210 66" stroke="#6EE7B7" stroke-width="1.2" fill="none" marker-end="url(#arr)"/>
  <text x="185" y="58" font-size="7" fill="#6B7280" font-style="italic">user-flow.md</text>

  <text x="310" y="28" text-anchor="middle" font-size="9" font-weight="600" fill="#065F46">ARCHITECTURE</text>
  <rect x="210" y="38" width="170" height="56" rx="6" fill="#D1FAE5" stroke="#059669" stroke-width="1.5"/>
  <text x="295" y="62" text-anchor="middle" font-size="12" font-weight="600" fill="#064E3B">system-architecture</text>
  <text x="295" y="78" text-anchor="middle" font-size="8" fill="#047857">stack, schema, API, deploy</text>

  <path d="M 380 66 L 410 66" stroke="#6EE7B7" stroke-width="1.2" fill="none" marker-end="url(#arr)"/>
  <text x="395" y="58" font-size="7" fill="#6B7280" font-style="italic">→ build</text>

  <!-- Horizontal skills -->
  <text x="330" y="128" text-anchor="middle" font-size="9" font-weight="600" fill="#065F46">HORIZONTAL — use anytime</text>

  <rect x="100" y="140" width="160" height="44" rx="6" fill="#ECFDF5" stroke="#6EE7B7" stroke-width="1" stroke-dasharray="4 2"/>
  <text x="180" y="162" text-anchor="middle" font-size="11" fill="#047857">code-cleanup</text>
  <text x="180" y="174" text-anchor="middle" font-size="8" fill="#059669">audit, refactor, remove slop</text>

  <rect x="380" y="140" width="160" height="44" rx="6" fill="#ECFDF5" stroke="#6EE7B7" stroke-width="1" stroke-dasharray="4 2"/>
  <text x="460" y="162" text-anchor="middle" font-size="11" fill="#047857">technical-writer</text>
  <text x="460" y="174" text-anchor="middle" font-size="8" fill="#059669">README, API docs, runbooks</text>
</svg>